# Blender v2.81 (sub 16) OBJ File: 'planehole.blend'
# www.blender.org
mtllib planehole.mtl
o Plane
v -1.000000 0.000000 1.000000
v 1.000000 0.000000 1.000000
v -1.000000 0.000000 -1.000000
v 1.000000 0.000000 -1.000000
v -0.109888 0.000000 -0.109888
v -0.109888 0.000000 0.109888
v 0.109888 0.000000 0.109888
v 0.109888 0.000000 -0.109888
vt 0.445056 0.445056
vt 0.445056 0.554944
vt 0.000000 1.000000
vt 0.000000 0.000000
vt 0.554944 0.445056
vt 1.000000 0.000000
vt 0.554944 0.554944
vt 1.000000 1.000000
vn 0.0000 1.0000 0.0000
usemtl None
s off
f 6/1/1 5/2/1 3/3/1 1/4/1
f 7/5/1 6/1/1 1/4/1 2/6/1
f 8/7/1 7/5/1 2/6/1 4/8/1
f 5/2/1 8/7/1 4/8/1 3/3/1
